<svg width="29" height="29" viewBox="0 0 29 29" fill="none" xmlns="http://www.w3.org/2000/svg">
<path d="M14.2222 28.4444C22.0769 28.4444 28.4444 22.0769 28.4444 14.2222C28.4444 6.36751 22.0769 0 14.2222 0C6.36751 0 0 6.36751 0 14.2222C0 22.0769 6.36751 28.4444 14.2222 28.4444Z" fill="#F0F4F2"/>
<path d="M12.5737 17.8003H17.0718V19.2222H10.3452V18.0327L14.2417 14.0337C14.8934 13.3638 15.2192 12.7257 15.2192 12.1196C15.2192 11.6502 15.0802 11.2856 14.8022 11.0259C14.5243 10.7616 14.1483 10.6294 13.6743 10.6294C13.1776 10.6294 12.7856 10.7752 12.4985 11.0669C12.2114 11.354 12.0679 11.8143 12.0679 12.4478V13.1655L10.5024 13.0151V12.4683C10.5024 11.4565 10.7873 10.6795 11.3569 10.1372C11.9266 9.59489 12.6968 9.32373 13.6675 9.32373C14.5789 9.32373 15.3241 9.5721 15.9028 10.0688C16.4816 10.5656 16.771 11.2469 16.771 12.1128C16.771 12.6095 16.6639 13.0675 16.4497 13.4868C16.2355 13.9061 15.8983 14.355 15.438 14.8335L12.5737 17.8003Z" fill="#1D352A"/>
</svg>
