<svg width="18" height="18" viewBox="0 0 18 18" fill="none" xmlns="http://www.w3.org/2000/svg">
<path d="M10.125 16.5C11.5713 16.5 12.9851 16.0711 14.1876 15.2676C15.3901 14.4641 16.3274 13.3221 16.8809 11.9859C17.4343 10.6497 17.5791 9.17939 17.297 7.7609C17.0148 6.34242 16.3184 5.03946 15.2957 4.01678C14.273 2.99411 12.9701 2.29767 11.5516 2.01551C10.1331 1.73336 8.66281 1.87817 7.32663 2.43163C5.99044 2.9851 4.84839 3.92236 4.04488 5.1249C3.24137 6.32743 2.8125 7.74123 2.8125 9.1875V9.75" stroke="#8AA398" stroke-width="1.12" stroke-linecap="round" stroke-linejoin="round"/>
<path d="M0.5625 7.49762L2.8125 9.74762L5.0625 7.49762" stroke="#8AA398" stroke-width="1.12" stroke-linecap="round" stroke-linejoin="round"/>
<path d="M9.5625 4.68512V9.74762H13.5" stroke="#8AA398" stroke-width="1.12" stroke-linecap="round" stroke-linejoin="round"/>
</svg>
