<svg width="18" height="18" viewBox="0 0 18 18" fill="none" xmlns="http://www.w3.org/2000/svg">
<g clip-path="url(#clip0_1035_628)">
<path d="M2.81476 10.4579V16.6454H7.31476V12.1454C7.31476 11.847 7.43329 11.5609 7.64426 11.3499C7.85524 11.1389 8.14139 11.0204 8.43976 11.0204H9.56476C9.86313 11.0204 10.1493 11.1389 10.3603 11.3499C10.5712 11.5609 10.6898 11.847 10.6898 12.1454V16.6454H15.1898V10.4579" stroke="#03A84E" stroke-width="1.12" stroke-linecap="round" stroke-linejoin="round"/>
<path d="M0.564758 9.3329L8.20651 1.69115C8.31098 1.58661 8.43504 1.50368 8.57157 1.44709C8.70811 1.39051 8.85446 1.36139 9.00226 1.36139C9.15006 1.36139 9.29641 1.39051 9.43294 1.44709C9.56948 1.50368 9.69353 1.58661 9.79801 1.69115L17.4398 9.3329" stroke="#03A84E" stroke-width="1.12" stroke-linecap="round" stroke-linejoin="round"/>
</g>
<defs>
<clipPath id="clip0_1035_628">
<rect width="18" height="18" fill="white"/>
</clipPath>
</defs>
</svg>
