<svg width="18" height="18" viewBox="0 0 18 18" fill="none" xmlns="http://www.w3.org/2000/svg">
<path d="M7.65002 15.5812C7.73576 15.8733 7.91379 16.1297 8.15746 16.3122C8.40113 16.4946 8.69732 16.5932 9.00171 16.5932C9.3061 16.5932 9.6023 16.4946 9.84597 16.3122C10.0896 16.1297 10.2677 15.8733 10.3534 15.5812" stroke="#8AA398" stroke-width="1.12" stroke-linecap="round" stroke-linejoin="round"/>
<path d="M9 2.925V1.40625" stroke="#8AA398" stroke-width="1.12" stroke-linecap="round" stroke-linejoin="round"/>
<path d="M9.00005 2.92499C10.3427 2.92499 11.6304 3.45836 12.5798 4.40776C13.5292 5.35716 14.0625 6.64483 14.0625 7.98749C14.0625 12.7435 15.075 13.5562 15.075 13.5562H2.92505C2.92505 13.5562 3.93755 12.2629 3.93755 7.98749C3.93755 6.64483 4.47092 5.35716 5.42032 4.40776C6.36972 3.45836 7.65739 2.92499 9.00005 2.92499V2.92499Z" stroke="#8AA398" stroke-width="1.12" stroke-linecap="round" stroke-linejoin="round"/>
</svg>
